STARTFONT 2.1
FONT -FontForge-Mando AF-Regular-R-Normal--76-730-75-75-M-390-ISO10646-1
SIZE 73 75 75
FONTBOUNDINGBOX 38 83 0 -2
COMMENT "Generated by fontforge, http://fontforge.sourceforge.net"
COMMENT "CC0 - public domain"
STARTPROPERTIES 40
FOUNDRY "FontForge"
FAMILY_NAME "Mando AF"
WEIGHT_NAME "Regular"
SLANT "R"
SETWIDTH_NAME "Normal"
ADD_STYLE_NAME ""
PIXEL_SIZE 76
POINT_SIZE 730
RESOLUTION_X 75
RESOLUTION_Y 75
SPACING "M"
AVERAGE_WIDTH 390
CHARSET_REGISTRY "ISO10646"
CHARSET_ENCODING "1"
FONTNAME_REGISTRY ""
CHARSET_COLLECTIONS "ISO10646-1"
FONT_NAME "MandoAF-Regular"
FACE_NAME "Mando AF Regular"
COPYRIGHT "CC0 - public domain"
FONT_VERSION "002"
FONT_ASCENT 61
FONT_DESCENT 15
UNDERLINE_POSITION -8
UNDERLINE_THICKNESS 4
X_HEIGHT 75
CAP_HEIGHT 75
RAW_ASCENT 800
RAW_DESCENT 200
NORM_SPACE 39
RELATIVE_WEIGHT 40
RELATIVE_SETWIDTH 50
SUPERSCRIPT_X 0
SUPERSCRIPT_Y 36
SUPERSCRIPT_SIZE 53
SUBSCRIPT_X 0
SUBSCRIPT_Y 10
SUBSCRIPT_SIZE 53
FIGURE_WIDTH 39
AVG_LOWERCASE_WIDTH 390
AVG_UPPERCASE_WIDTH 390
ENDPROPERTIES
CHARS 77
STARTCHAR space
ENCODING 32
SWIDTH 510 0
DWIDTH 39 0
BBX 1 1 0 0
BITMAP
00
ENDCHAR
STARTCHAR exclam
ENCODING 33
SWIDTH 510 0
DWIDTH 39 0
BBX 10 55 14 10
BITMAP
E000
E000
E000
F000
F000
F000
F000
F000
F000
F000
F000
F000
F000
F040
F1C0
FFC0
FFC0
FFC0
FF80
FF80
FF80
FF80
FF80
FF00
FF00
FF00
FF00
FF00
FE00
FE00
FE00
FE00
FE00
FC00
FC00
FC00
FC00
FC00
FC00
F800
F800
F800
F800
F800
F000
F000
F000
F000
F000
E000
E000
C000
C000
8000
8000
ENDCHAR
STARTCHAR quotedbl
ENCODING 34
SWIDTH 510 0
DWIDTH 39 0
BBX 21 22 10 59
BITMAP
008008
018018
030038
070070
1F00F0
3F03F0
7E07F0
FE07E0
FE07E0
FE07E0
7C07C0
7C07C0
7C07C0
7C07C0
780380
380380
380380
300380
300300
300300
100100
200200
ENDCHAR
STARTCHAR numbersign
ENCODING 35
SWIDTH 510 0
DWIDTH 39 0
BBX 37 75 1 0
BITMAP
0003000000
0007000000
001F003000
003F00F000
00FF01F000
00FF03F000
00FF0FF000
00FF1FF000
00FF7FF000
00FFFFF000
00FFFFF000
00FFFFF000
00FFFDF000
00FFF9F000
00FFF1F000
00FFF1F000
01FFE1F000
0FFFC1F000
7FFF81F000
FFFF01F000
7FFF01F000
3FFF01F000
07FF03F000
00FF03F000
00FF03F000
00FE03F000
00FE03F000
00FE03F000
00FE03F000
00FE03F000
00FE03F000
00FE03F000
00FE03F000
007E03F000
007E03F000
007E03F000
007E03F000
007E03F000
007E03F000
007E03F000
007E03F000
007E03F000
007E03F000
007E03F000
007E07F000
007C07F000
007C07F000
007C07F000
007C07F000
007C07F000
007C07F800
007C07FF00
007C07FFE0
007C07FFF0
007C07FFF8
007C0FFFF0
007C1FFF80
007C3FFC00
007C7FF000
007CFFF000
007DFFF800
007DFFF800
007FFFF800
007FFFF800
007FFFF800
007FEFF800
007FCFF800
007F8FF800
007E0FF800
007C0FF800
00700FE000
00600FC000
00000F0000
00000C0000
0000080000
ENDCHAR
STARTCHAR dollar
ENCODING 36
SWIDTH 510 0
DWIDTH 39 0
BBX 32 76 3 0
BITMAP
00010000
00418000
0041E000
00C1F000
00C1F000
01C1F000
01C1F000
03C1F000
03C1F000
03C1F000
03C1F000
03C1F000
07C1F000
07C1F000
07C1F000
07C1F000
07C1F000
0FC1F000
0FC1F000
0FC1F000
0FC1F000
0FC1F800
1FC1F800
1FC1F800
1FC1F800
1FC1F800
1FC3F800
1FC3F800
3FC3F800
3FC3F800
3FC1F800
3FC1FC00
3FC1FC00
7FC0FC00
7FC0FE00
7FC07E00
7FC07F00
7FC03F00
FFC03F00
FFC03F80
F3C01F80
C3C01FC0
03C00FC0
03C00FE0
03C007E0
03C007E0
03C007F0
03C003F0
03C003F8
03C001F8
03C001F8
03C001FC
01C000FC
01C000FE
01C0007E
00C0007E
0000007F
0000007F
0000007F
0000007F
000000FF
000000FF
000000FF
000000FF
000000FF
060000FF
070000FF
0F0000FF
0F8000FF
0F803FFE
0FBFFFFC
0FFFFFF8
0FFFFFF0
0FFFFFC0
01FFFF80
0000FF00
ENDCHAR
STARTCHAR ampersand
ENCODING 38
SWIDTH 510 0
DWIDTH 39 0
BBX 37 76 1 -1
BITMAP
0003800000
0007E00000
001FFC0000
007FFE0000
00FFFC0000
01FFF80000
01FE000000
01FE000000
01FE000E00
01FE003F80
01FE007FF0
01FE01FFF8
01FE07FFF0
01FE0FFFC0
01FE0FF800
01FE0FF800
01FE0FF800
01FE0FF800
01FE0FF800
01FE0FF000
01FC0FF000
01FC0FF000
01FC0FF000
01FC0FF000
01FC07F000
01FC07F000
01FC07F000
01FC07F000
01FC07F000
01FC07F000
01FC07F000
01FC07F000
01FC07F000
01FC07F000
01FC07F000
01FC07F000
01FC07F000
01FC07F000
01FC07F000
01FC07F000
01FC07F000
01FC07F000
01FC07F000
81F807F000
C1F807F000
E1F807E000
79F807E000
7DF807E000
7FF807E000
7FF807E000
3FF807E000
3FF807E000
3FF807E000
3FF807E000
1FF807E000
1FF807E000
1FF807E000
1FF807E000
0FF807E000
0FF807E000
0FF807E000
0FF807E000
07F807E000
07F807E000
07F807E000
07F807C000
07F807C000
03F007C000
03F007C000
03F007C000
01F007C000
01F007C000
01F007C000
01E0078000
00C0060000
0080000000
ENDCHAR
STARTCHAR quotesingle
ENCODING 39
SWIDTH 510 0
DWIDTH 39 0
BBX 9 22 15 59
BITMAP
0080
0100
0700
0F00
1F00
3E00
7E00
FE00
FE00
FC00
FC00
7C00
7C00
7800
7800
7800
7000
3000
3000
3000
2000
2000
ENDCHAR
STARTCHAR comma
ENCODING 44
SWIDTH 510 0
DWIDTH 39 0
BBX 12 20 13 0
BITMAP
0010
0010
0030
0070
0070
00F0
00F0
01F0
03F0
03F0
07F0
07F0
0FE0
0FC0
1F00
3E00
3C00
7000
6000
8000
ENDCHAR
STARTCHAR hyphen
ENCODING 45
SWIDTH 510 0
DWIDTH 39 0
BBX 31 16 4 33
BITMAP
00000080
00000FE0
00007FF8
0003FFFC
000FFFFC
003FFFFE
00FFFFF8
03FFFF80
07FFFC00
1FFFE000
1FFE0000
3FF00000
3F800000
7C000000
F0000000
80000000
ENDCHAR
STARTCHAR period
ENCODING 46
SWIDTH 510 0
DWIDTH 39 0
BBX 13 20 13 0
BITMAP
4000
4000
6000
6000
7000
F800
F800
FC00
FC00
FE00
FE00
FF00
3F80
1F80
07C0
03C0
01E0
0060
0030
0008
ENDCHAR
STARTCHAR zero
ENCODING 48
SWIDTH 510 0
DWIDTH 39 0
BBX 30 76 5 -1
BITMAP
00000F00
01001FE0
07007FF8
0F01FFFC
0F03FFF8
1F07FFC0
1F07FC00
1F07FC00
1F07FC00
1F07F800
1F07F800
1F07F800
1F07F800
1F07F800
1F07F800
1F07F800
1F07F800
1F07F800
1F07F800
1F07F800
1F07F800
3F07F800
3F07F800
3F07F800
3F07F800
3F07F800
3F07F000
3F07F000
3F07F000
3F87F000
3F87F000
3F87F000
3F87F000
3F87F000
3F87F000
7F87F000
7F87F000
7F87F000
7F87F000
7F87F000
7F87F000
7F87F000
7F87E000
7F87E000
7F87E000
7F87E000
7F87E000
7F87E000
7F07E000
7E07E000
7807E000
E007E000
C007E000
0007E000
0007E000
0007E000
0007E000
0007E000
0007E000
0007C000
0007C000
0007C000
0007C000
0007C000
0007C000
0007C000
0007C000
0007C000
0007C000
0007C000
0007C000
0007C000
00078000
00070000
00060000
00040000
ENDCHAR
STARTCHAR one
ENCODING 49
SWIDTH 510 0
DWIDTH 39 0
BBX 37 75 1 0
BITMAP
0003060000
0007070000
000F078000
000F078000
000F078000
000F078000
000F078000
001F078000
001F07C000
001F07C000
001F07C000
001F07C000
001F07C000
001F07C000
001F07C000
001F07C000
001F07C000
001F07C000
001F07C000
001F07C000
001F07C000
001F07C000
001F07C000
001F07C000
003F07C000
003F07E000
003F07E000
003F07E000
003F07E000
003F07E000
003F07E000
003F07E000
003F07E000
003F07E000
003F07E000
003F07E000
003F07E000
003F07E000
003F07E000
003F07E000
007F07E000
007F07F000
007F07F000
007F07F000
007F07F000
007F07F000
007F07F000
007F07F000
007F07F000
007F07F000
007F07F000
007F07F000
007F07F000
007F07F000
007F07F000
007F07F000
007F07F000
00FF07F000
00FF07F800
00FF07F800
00FF07F800
00FF07F800
00FF07F800
00FF07F800
00FF07F800
00FF07F800
00FF07F800
00FF07F800
00FF07F800
1FFF07FF80
7FFF07FFF0
FFFC01FFF8
FFF0007FF8
1FE0003FC0
0380000F00
ENDCHAR
STARTCHAR two
ENCODING 50
SWIDTH 510 0
DWIDTH 39 0
BBX 21 76 9 0
BITMAP
400000
600000
780018
7C0038
7C00F8
7C03F8
7C07F0
7C0FF0
7C0FF0
7C0FF0
7C0FF0
7C0FF0
7C0FF0
7C0FF0
7C0FF0
7C0FF0
7C0FF0
7C0FF0
7C0FF0
7C0FF0
7C0FF0
7C0FF0
7C0FF0
7E0FF0
7E0FF0
7E0FF0
7E0FF0
7E0FF0
7E0FE0
7E0FE0
7E0FE0
7E0FE0
7E0FE0
7E0FE0
7E07E0
7E07E0
7E07E0
7E07E0
7E07E0
7E07E0
7E07E0
7E07E0
7E07E0
FE07E0
FE07E0
FE07C0
FE07C0
FE07C0
FE07C0
FE07C0
FE07C0
FF07C0
FF07C0
FF07C0
FF07C0
FF07C0
FF07C0
FF07C0
FF07C0
FF07C0
FF07C0
FF0780
FF0700
FF0400
FF0000
FF0000
FF0000
FF0000
FF0000
FF0000
FFF800
7FFE00
1FFF00
0FFE00
03F800
01C000
ENDCHAR
STARTCHAR three
ENCODING 51
SWIDTH 510 0
DWIDTH 39 0
BBX 37 75 1 0
BITMAP
0780001F00
3FE0003FE0
FFF800FFF8
FFFC03FFF8
7FFF07FFF0
07FF07FF00
00FF07F800
00FF07F800
00FF07F800
00FF07F800
00FF07F800
00FF07F800
00FF07F800
00FF07F800
00FF07F000
00FF07F000
00FF07F000
00FF07F000
00FF07F000
00FF07F000
00FF07F000
007F07F000
007F07F000
007F07F000
007F07F000
007F07F000
007F07F000
007F07F000
007F07F000
007F07F000
007F07E000
007F07E000
007F07E000
007F07E000
007F07E000
007F07E000
007F07E000
003F07E000
003F07E000
003F07E000
003F07E000
003F07E000
003F07E000
003F07E000
003F07E000
003F07E000
003F07E000
003F07C000
003F07C000
003F07C000
003F07C000
003F07C000
003F07C000
003F07C000
001F07C000
001F07C000
001F07C000
001F07C000
001F07C000
001F07C000
001F07C000
001F07C000
001F07C000
001F07C000
001F078000
001F078000
001F078000
001F078000
001F078000
001F078000
000F078000
000F078000
000F078000
0007060000
0001040000
ENDCHAR
STARTCHAR four
ENCODING 52
SWIDTH 510 0
DWIDTH 39 0
BBX 21 75 9 0
BITMAP
01E000
07FC00
1FFF00
3FFF00
FFFE00
FFC000
FF0000
FF0000
FF0000
FF0000
FF0000
FF0000
FF0600
FF0700
FF07C0
FF07C0
FF07C0
FF07C0
FF07C0
FF07C0
FF07C0
FF07C0
FF07C0
FF07C0
FE07C0
FE07C0
FE07C0
FE07C0
FE07C0
FE07C0
FE07C0
FE07E0
FE07E0
7E07E0
7E07E0
7E07E0
7E07E0
7E07E0
7E07E0
7E07E0
7E07E0
7E07E0
7E0FE0
7E0FE0
7E0FE0
7E0FE0
7E0FE0
7E0FF0
7E0FF0
7E0FF0
7E0FF0
7E0FF0
7C0FF0
7C0FF0
7C0FF0
7C0FF0
7C0FF0
7C0FF0
7C0FF0
7C0FF0
7C0FF0
7C0FF0
7C0FF0
7C0FF0
7C0FF0
7C0FF0
7C0FF0
7C0FF0
7C0FF0
7C03F8
7C01F8
7C0078
780038
700008
600000
ENDCHAR
STARTCHAR five
ENCODING 53
SWIDTH 510 0
DWIDTH 39 0
BBX 36 76 1 0
BITMAP
0000001000
07C0003E00
3FF000FFC0
FFF803FFF0
7FFE07FFE0
3FFF8FFFC0
00FF8FF800
00FF8FF000
00FF8FF000
00FF8FF000
00FF0FF000
00FF0FF000
00FF0FE000
007F0FE000
007F0FE000
007F0FE000
007F0FE000
007F0FE000
007F0FE000
007F0FE000
007F0FE000
007F0FE000
007F0FE000
007F0FE000
007F0FE000
007F0FE000
007F0FE000
007F0FE000
007F0FE000
007F0FE000
007F0FE000
007F0FE000
007F0FE000
007F0FE000
007F0FC000
003F0FC000
003F0FC000
003F0FC000
003F0FC000
003F0FC000
003F0FC000
003F0FC000
003F0FC000
003F0FC000
003F0FC000
003F0FC000
003F0FC000
003F0FC000
003F0FC000
003F0FC000
003F0FC000
003F0FC000
003F0FC000
003F0FC000
003F0FC000
003F0FC000
003F0FC000
003F0F8000
001F0F8000
001F0F8000
001F0F8000
001F0F8000
001F0F8000
001F0F8000
001F0F8000
001F0F8000
001F0F8000
001F078000
001F078000
001E078000
1FFE07FF00
7FFE07FFE0
FFF801FFF0
7FF000FFE0
0FC0003F00
0380001C00
ENDCHAR
STARTCHAR six
ENCODING 54
SWIDTH 510 0
DWIDTH 39 0
BBX 17 76 11 0
BITMAP
008000
03F000
07FC00
1FFF80
7FFF00
FFFE00
FF8000
FF0000
FF0000
FF0000
FF0000
FF0000
FF0000
FF0000
FF0000
FF0000
FF0000
FF0000
FF0000
FF0000
FF0000
FF0000
FF0000
FE0000
FE0000
FE0000
FE0000
FE0000
FE0000
FE0000
FE0000
FE0000
FE0000
FE0000
FE0000
FE0000
FE0000
FE0000
FE0000
7E0000
7E0000
7E0000
7E0000
7E0000
7E0000
7E0000
7C0000
7C0000
7C0000
7C0000
7C0000
7C0000
7C0000
7C0000
7C0000
7C0000
7C0000
7C0000
7C0000
7C0000
7C0000
7C0000
7C0000
7C0000
7C0000
7C0000
7C0000
7C0000
7C0000
7C0000
7FF800
3FFE00
1FFF00
07FE00
03F800
00C000
ENDCHAR
STARTCHAR seven
ENCODING 55
SWIDTH 510 0
DWIDTH 39 0
BBX 38 76 0 0
BITMAP
0000000200
0000000F80
0000001FF0
0000007FFC
000001FFFC
000083FFF8
000383FF00
000783FC00
000783FC00
000783FC00
000F83FC00
000F83FC00
000F83FC00
000F83FC00
000F83F800
000F83F800
000F83F800
000F83F800
000F83F800
000F83F800
000F83F800
000F83F800
000F83F800
000F83F800
000F83F800
001F83F800
001F83F800
001F83F800
001F83F800
001F83F800
001F83F000
001F83F000
001F83F000
001F83F000
001F83F000
001F83F000
001F83F000
001F83F000
001F83F000
001F83F000
001F83F000
003F83F000
003F83F000
003F83F000
003F83F000
003F83F000
003F83E000
003F83E000
003F83E000
003F83E000
003F83E000
003F83E000
003F83E000
003F83E000
003F83E000
003F83E000
003F83E000
007F83E000
007F83E000
007F83E000
007F83E000
007F83C000
007F83C000
007F83C000
007F83C000
007F83C000
007F83C000
007F83C000
007F83C000
007F83C000
0FFF838000
7FFF830000
FFFE040000
7FF8000000
0FE0000000
03C0000000
ENDCHAR
STARTCHAR eight
ENCODING 56
SWIDTH 510 0
DWIDTH 39 0
BBX 17 76 11 -2
BITMAP
200000
300000
3C0000
7C0000
7C0000
7C0000
7C0000
7C0000
7C0000
7C0000
7C0000
7C0000
7C0000
7C0000
7C0000
7C0000
7C0000
7C0000
7C0000
7C0000
7C0000
7E0000
7E0000
7E0000
7E0000
7E0000
7E0000
7E0000
7E0000
7E0000
7E0000
7E0000
7E0000
7E0000
7E0000
7E0000
7E0000
7E0000
7E0000
7E0000
7E0000
7E0000
7E0000
7E0000
7E0000
7E0000
7E0000
FE0000
FF0000
FF0000
FF0000
FF0000
FF0000
FF0000
FF0000
FF0000
FF0000
FF0000
FF0000
FF0000
FF0000
FF0000
FF0000
FF0000
FF0000
FF0000
FF0000
FF0000
FF0000
FFC000
FFFE00
3FFF00
1FFF80
07FC00
01F000
008000
ENDCHAR
STARTCHAR nine
ENCODING 57
SWIDTH 510 0
DWIDTH 39 0
BBX 29 76 5 0
BITMAP
00000C00
30001F00
78007FE0
7C01FFF8
7C03FFF0
7C0FFFE0
7C0FF800
7C0FF800
7C0FF800
7C0FF800
7C0FF800
7C0FF000
7C0FF000
7C07F000
7C07F000
7C07F000
7C07F000
7C07F000
7C07F000
7C07F000
7C07F000
7C07F000
7C07F000
7C07F000
7C07F000
7E07F000
7E07F000
7E07F000
7E07F000
7E07F000
7E07F000
7E07F000
7E07F000
7E07F000
7E07F000
7E07F000
7E07F000
7E07F000
7E07F000
7E07F000
7E07E000
7E07E000
7E07E000
7E07E000
FE07E000
FE07E000
FE07E000
FE07E000
FE07E000
FE07E000
FE07E000
FF07E000
FF07E000
FF07E000
FF07E000
FF07E000
FF07E000
FF07C000
FF03C000
FF03C000
FF03C000
FF03C000
FF038000
FF030000
FF000000
FF000000
FF000000
FF000000
FF000000
FF000000
FFF80000
7FFE0000
1FFF0000
0FFE0000
03F80000
01C00000
ENDCHAR
STARTCHAR colon
ENCODING 58
SWIDTH 510 0
DWIDTH 39 0
BBX 13 39 13 21
BITMAP
0010
0030
0030
0078
0078
00F8
00F8
01F8
03F8
03F8
07F8
07F0
0FC0
0F80
1F00
3C00
3800
6000
4000
0020
0030
0030
0070
00F0
00F0
01F0
01F0
03F0
07F0
07F0
0FF0
0FE0
1F80
1F00
3C00
3800
7000
C000
8000
ENDCHAR
STARTCHAR semicolon
ENCODING 59
SWIDTH 510 0
DWIDTH 39 0
BBX 14 60 12 1
BITMAP
0004
000C
000C
001C
001C
003C
003C
007C
00FC
00FC
01FC
01FC
03F8
07F0
07C0
0F80
0E00
1C00
1800
2000
0008
0008
0018
0038
0038
0078
0078
00F8
01F8
01FC
03FC
03F8
07F0
07E0
0F80
1F00
1C00
3800
2000
4000
0010
0010
0030
0070
0070
00F0
00F8
01F8
01F8
03F8
07F8
07F0
0FE0
0FC0
1F00
1E00
3800
7000
4000
8000
ENDCHAR
STARTCHAR question
ENCODING 63
SWIDTH 510 0
DWIDTH 39 0
BBX 29 75 5 1
BITMAP
0007F000
1FFFF800
FFFFFE00
FFFFFF00
FFFFFF80
FFFFFFC0
7803FFF0
78000FF8
78000FF8
70000FF8
60000FF0
00000FF0
00000FF0
000007F0
000007F0
000007F0
000007F0
000007F0
000007F0
000007F0
000007F0
000007E0
000007E0
00000FE0
00000FC0
00001FC0
00001F80
00003F80
00003F00
00003F00
00007F00
00007E00
0000FE00
0000FC00
0000FC00
0001FC00
0001F800
0003F800
0003F000
0007F000
0007F000
0007E000
000FE000
000FC000
001FC000
001F8000
001F8000
001F8000
001F8000
001F8000
001F8000
001F8000
001F8000
001F8000
001F8000
001F8000
001F8000
001F8000
001F8000
001F8000
001F8000
001F0000
001F0000
001F0000
001F0000
001F0000
001F0000
001F0000
001F0000
001F0000
001F0000
001F0000
000F0000
000E0000
000C0000
ENDCHAR
STARTCHAR at
ENCODING 64
SWIDTH 510 0
DWIDTH 39 0
BBX 30 75 4 1
BITMAP
00002000
00406000
0040E000
0061E000
00E1E000
00E1E000
01E1E000
01E1E000
01E1E000
01E1E000
03E1E000
03E1E000
03E1E000
03E3E000
03E3E000
07E3E000
07E3E000
07E3E000
07E3E000
07E3E000
0FE3E000
0FE3E000
0FE3E000
0FE3E000
0FE3E000
0FE3E000
1FE3E000
1FE3E000
1FE3E000
1FE3E000
1FE3E000
3FE3E000
3FE3E000
3FE3E000
3FE3E000
3FE3E000
7FE3E000
7FE7E000
7FE7E000
7FE7E000
7BEFE000
E3EFC000
83EFC000
01FFC000
01FFC000
01FF8000
01FF8000
01FF8000
01FF0000
01FF0000
01FF0000
01FE0000
01FE0000
01FE0000
01FE0000
01FC0000
01FC0000
01FC0000
03F80000
03F80000
03F80000
07F80000
07F00000
07F00000
0FF00004
0FE0001C
0FE0003C
0FE0003C
07FE003C
03FFF87C
01FFFFFC
00FFFFFC
007FFFFC
003FFFFC
001FF800
ENDCHAR
STARTCHAR A
ENCODING 65
SWIDTH 510 0
DWIDTH 39 0
BBX 23 75 8 0
BITMAP
004000
004080
00C0C0
00C0E0
01C0F0
01C0F0
03C0F0
03C0F0
03C0F0
03C0F0
03C0F0
07C0F0
07C0F0
07C0F8
07C0F8
07C0F8
0FC0F8
0FC0F8
0FC0F8
0FC0F8
0FC0F8
0FC0F8
1FC0F8
1FC1F8
1FC1F8
1FC1F8
1FC1F8
3FC1F8
3FC1F8
3FC1F8
3FC1F8
3FC1F8
7FC1F8
7FC1F8
7FC1F8
7FC1FC
7FC1FC
FFC1FC
FFC1FC
F3C1FC
C3C1FC
03C1FC
03C1FC
03C1FC
03C1FC
03C1FC
03C1FC
03C1FC
03C1FC
03C1FC
03C1FC
01C1FC
01C1FC
01C1FC
00C1FC
0001FC
0001FC
0001FC
0001FC
0001FC
0001FE
0001FE
0001FE
0001FE
0001FE
0001FE
0001FE
0001FE
0001FE
0001FE
0001FE
00007E
00003E
00000E
000006
ENDCHAR
STARTCHAR B
ENCODING 66
SWIDTH 510 0
DWIDTH 39 0
BBX 24 76 7 0
BITMAP
000180
0003F0
000FFC
003FFF
007FFE
00FFFC
00FF00
00FF00
00FF00
00FF00
00FF00
00FE00
00FE00
00FE00
00FE00
00FE00
00FE00
00FE00
00FE00
00FE00
00FE00
00FE00
00FE00
00FFC0
00FFF0
00FFFE
00FFFF
00FFFF
00FFFE
00FE00
00FE00
00FE00
00FE00
00FE00
00FE00
00FC00
00FC00
00FC00
00FC00
00FC00
00FC00
00FC00
00FC00
80FC00
40FC00
70FC00
78FC00
7CFC00
3FFC00
3FFC00
3FFC00
3FFC00
1FFC00
1FFC00
1FFC00
1FFC00
0FFC00
0FFC00
0FF800
0FF800
07F800
07F800
07F800
07F800
03F800
03F800
03F800
03F800
01F800
01F800
01F800
01F800
00F800
00F000
00E000
00C000
ENDCHAR
STARTCHAR C
ENCODING 67
SWIDTH 510 0
DWIDTH 39 0
BBX 23 76 8 0
BITMAP
018000
03E000
0FFC00
3FFF00
7FFE00
FFFC00
FF8000
FF0000
FF0000
FF0000
FF0000
FF0000
FF0000
FE0000
FE0000
FE0000
FE0000
FE0000
FE0000
FE0000
FE0000
FE0000
FE0000
FE0000
FE0000
FE0000
FE0000
FE0000
FE0000
FE0000
FE0000
FE0000
FE0000
FE0000
FE0000
FE0000
FC0000
FC0000
FC0000
FC0000
FC0000
FC0000
FC0000
FC0000
FC0000
FC0000
FC0000
FC0000
FC0000
FC0000
FC0000
FC0000
FC0000
FC0000
FC0000
FC0000
FC0000
FC0000
FC0000
FC0000
FC0000
FC0000
FC0000
F80000
F80000
F80006
F8001E
F8001E
7C001E
7FF03E
7FFFFE
7FFFFE
3FFFFE
1FFFFE
0FFFC0
0F8000
ENDCHAR
STARTCHAR D
ENCODING 68
SWIDTH 510 0
DWIDTH 39 0
BBX 28 76 5 -1
BITMAP
00000C00
00003F00
0000FFE0
1801FFF0
1C07FFE0
1E0FFFC0
1E0FF000
3E0FF000
3E0FF000
3E0FF000
3E0FF000
3E0FF000
3E0FF000
3E0FF000
3E0FF000
3E0FF000
3E0FF000
3E0FF000
3E0FF000
3E0FF000
3E0FF000
3E0FF000
3E0FF000
3E0FF000
3E0FE000
3E0FE000
3E0FE000
3E0FE000
3E0FE000
3E0FE000
3E0FE000
3E07E000
7E07E000
7E07E000
7E07E000
7F07E000
7F07E000
7F07E000
7F07E000
7F07E000
7F07E000
7F07E000
7F07E000
7F07E000
7F07E000
7F07E000
7F07E000
7F07C000
7F07C000
7F07C000
7F07C000
7F07C000
7F07C000
7F07C000
7F07C000
7F07C000
7F07C000
7F07C000
7F07C000
7F07C000
FF07C000
FF07C000
FF07C000
FF07C000
FF07C0C0
FF07C1C0
FF07C3C0
FF07C3C0
FFFFC3C0
FFFFF7C0
FFFFFFC0
7FFFFFC0
3FFFFFC0
1FFFFE00
0FFF0000
07800000
ENDCHAR
STARTCHAR E
ENCODING 69
SWIDTH 510 0
DWIDTH 39 0
BBX 26 76 6 0
BITMAP
00007000
0001FE00
0003FF80
000FFFC0
001FFF80
003FFE00
00FFC000
07FFC000
3FFFC000
FFFFC000
7FFFC000
3FFFC000
07FFC000
003FC000
003FC000
003FC000
003FC000
003F8000
003F8000
003F8000
003F8000
003F8000
003F8000
003F8000
003F8000
003F8000
003F8000
003F8000
003F8000
003F8000
003F8000
003F8000
003F8000
003F8000
003F8000
003F8000
003F8000
003F8000
003F8000
003F8000
003F0000
003F0000
003F0000
003F0000
003F0000
003F0000
003F0000
003F0000
003F0000
003F0000
003F0000
003F0000
003F0000
003F0000
003F0000
003F0000
003F0000
003F0000
003F0000
003F0000
003F0000
003F0000
003F0000
003F0000
001E0000
001E0000
001E0000
001E0000
001E0000
001E0000
001E0000
001E0000
001E0000
001E0000
00180000
00100000
ENDCHAR
STARTCHAR F
ENCODING 70
SWIDTH 510 0
DWIDTH 39 0
BBX 33 76 3 0
BITMAP
000F000000
003FFC0000
007FFFF000
00FFFFFF80
01FFFFFF80
03FFFFFF80
03FFFFFF80
03FFFC0F80
03FF000F80
03FC000F80
03FC000780
03FC000380
03FC000180
03FC000000
03FC000000
03FC000000
03FC000000
03FC000000
83FC000000
C3FC000000
F3FC000000
FBFC000000
7DFC000000
7FFC000000
7FFC000000
7FFC000000
7FFC000000
3FFC000000
3FFC000000
3FFC000000
3FFC000000
1FFC000000
1FFC000000
1FFC000000
1FF8000000
0FF8000000
0FF8000000
0FF8000000
0FF8000000
07F8000000
07F8000000
07F8000000
07F8000000
03F8000000
03F8000000
03F8000000
03F8000000
01F8000000
01F8000000
01F8000000
01F8000000
01F8000000
01F8000000
01F8000000
01F8000000
01F8000000
01F8000000
01F8000000
01F8000000
01F8000000
00F8000000
00F8000000
00F8000000
00F8000000
00F8000000
00F8000000
00F8000000
00F8000000
00F0000000
00F0000000
00F0000000
00F0000000
00F0000000
00E0000000
00C0000000
0080000000
ENDCHAR
STARTCHAR G
ENCODING 71
SWIDTH 510 0
DWIDTH 39 0
BBX 29 75 5 1
BITMAP
00060000
00070000
00078000
0007C000
0007C000
0007C000
0007C000
0007C000
0007C000
0007C000
0007C000
0007C000
0007C000
0007C000
0007C000
0007C000
0007C000
0007C000
0007C000
0007C000
0007C000
0007C000
0007C000
0007C000
0007C000
0007C000
0007C000
0007C000
0007C000
0007C000
0007C000
0007C000
0007C000
0007C000
0007E000
0007E000
0007E000
0007E000
8007E000
C007F000
E003F000
7003F000
7C03F800
7E03F800
3F01F800
3F81FC00
3F81FC00
1F80FC00
1F80FE00
1F80FE00
0F007E00
0F007F00
0F007F00
07007F00
07003F80
07003F80
03003F80
02001FC0
02001FC0
02001FC0
00001FE0
00000FE0
00000FE0
00000FF0
100007F0
180007F0
1C0007F8
3C0007F8
3E007FF0
3E1FFFE0
3FFFFFC0
3FFFFF80
3FFFFF00
1FFFFE00
001FFC00
ENDCHAR
STARTCHAR H
ENCODING 72
SWIDTH 510 0
DWIDTH 39 0
BBX 27 76 6 0
BITMAP
01C00000
07F80000
0FFE0000
3FFF0000
7FFE0000
FFF80000
FF000000
FF000000
FF000000
FF000000
FF000000
FF000000
FF000000
FF000000
FF000000
FF000000
FF000000
FF000000
FE000000
FE000000
FE000000
FE400000
FE300400
FE380300
FE3C0380
FE1E0380
FE1F8380
FE1FC380
FE0FE380
FE0FE780
FE0FC780
FE07C780
FE07C780
FE07C780
FE07C780
FE03C780
FE03C7C0
FE0387C0
FE0187C0
FE0187C0
FE0187C0
FE0087C0
FC0087C0
FC0007C0
FC0007C0
FC0007C0
FC0007C0
FC0007C0
FC0007C0
FC0007C0
FC0007C0
FC0007C0
FC0007C0
FC0007C0
FC0007C0
FC0007C0
FC0007C0
FC0007C0
FC0007C0
7C0007C0
7C0007C0
7C0007E0
7C0007E0
7C0007E0
7C0007E0
7C0007E0
780007E0
780007E0
780007E0
780007E0
780007E0
780003E0
780000E0
78000060
60000020
40000000
ENDCHAR
STARTCHAR I
ENCODING 73
SWIDTH 510 0
DWIDTH 39 0
BBX 27 75 6 0
BITMAP
00003000
00007000
0001F000
0007F000
000FF000
000FF000
000FF000
000FF000
000FF000
000FF000
000FF000
000FF000
000FF000
000FF000
000FF000
000FF000
000FF000
000FF000
000FF000
000FF000
000FF000
000FF000
000FF000
000FE000
000FE000
000FE000
000FE000
000FE000
000FE000
000FE000
000FE000
000FE000
000FE000
000FE000
000FE000
000FE000
000FE000
000FE000
000FE000
000FE000
000FE000
000FE000
000FE000
0007E000
0007E000
0007E000
0007C000
0007C000
0007C000
0007C000
0007C000
0007C000
0007F000
0007FE00
000FFFC0
001FFFE0
001FFFE0
003FFF80
007FFC00
00FFF000
01FFC000
03FFC000
07FFC000
07FFC000
0FFFC000
1FF7C000
3FC7C000
7F87C000
7F07C000
7C078000
F8078000
E0078000
C0078000
00070000
00040000
ENDCHAR
STARTCHAR J
ENCODING 74
SWIDTH 510 0
DWIDTH 39 0
BBX 16 76 15 0
BITMAP
01C0
03F8
0FFE
3FFF
7FFE
FFF8
FF00
FF00
FF00
FF00
FF00
FF00
FF00
FF00
FF00
FF00
FF00
FF00
FF00
FE00
FE00
FE00
FE00
FE00
FE00
FE00
FE00
FE00
FE00
FE00
FE00
FE00
FE00
FE00
FE00
FE00
FE00
FE00
FE00
FE00
FE00
FE00
FE00
FC00
FC00
FC00
FC00
FC00
FC00
FC00
FC00
FC00
FC00
FC00
7C00
7C00
7C00
7C00
7C00
7C00
7C00
7C00
7C00
7C00
7C00
7C00
7C00
7800
7800
7800
7800
7800
7800
7800
6000
4000
ENDCHAR
STARTCHAR K
ENCODING 75
SWIDTH 510 0
DWIDTH 39 0
BBX 27 76 6 0
BITMAP
00003000
0000FE00
0003FFC0
0007FFE0
001FFFC0
003FFF00
003FE000
003FC000
003FC000
003FC000
003FC000
003FC000
003FC000
003FC000
003FC000
003FC000
803FC000
C03FC000
703FC000
783FC000
7E3FC000
3F3FC000
3FBFC000
3FFFC000
1FFFC000
0FFFC000
07FFC000
03FFC000
01FFC000
01FFC000
00FFC000
007FC000
003F8000
001F8000
001F8000
001F8000
001F8000
001F8000
001F8000
001F8000
001F8000
007F8000
01FF8080
0FFF8180
7FFF8300
FFFF8700
7FFF9F00
3FFFBE00
001FFE00
001FFE00
001FFE00
001FFC00
001FFC00
001FFC00
00FFF800
07FFF800
1FFFF800
FFFFF000
FFFFF000
7FFFF000
07FFF000
001FE000
001FE000
001FE000
001FC000
001FC000
001FC000
001F8000
001F8000
001F8000
001F8000
001F0000
001F0000
001E0000
001C0000
00180000
ENDCHAR
STARTCHAR L
ENCODING 76
SWIDTH 510 0
DWIDTH 39 0
BBX 31 76 5 0
BITMAP
00008000
00018000
00038000
00078006
0007800E
0007803C
000780FC
000F81FC
000F87F8
000F8FF8
000FBFF0
000FFFE0
000FFFC0
000FFF80
000FFF00
003FFE00
01FFFC00
0FFFF800
1FFFF000
1FFFE000
07FFC000
01FF8000
003F8000
000F8000
000F8000
000F8000
000F8000
000F8000
000F8000
000F8000
001F8000
001F8000
001FC000
001FC000
001FC000
001FC000
001FC000
001FC000
001FC000
001FC000
001FC000
001FC000
007FC000
03FFC000
0FFFC000
7FFFC000
FFFFC000
7FFFC000
3FFFC000
001FC000
001FC000
001FC000
001FC000
003FC000
00FFC000
07FFC000
3FFFC000
FFFFC000
7FFFC000
7FFFC000
07FFC000
003FC000
003FC000
003FC000
003FC000
003FC000
003FC000
003FC000
003FC000
003FC000
003FC000
003FC000
003F0000
003C0000
00380000
00200000
ENDCHAR
STARTCHAR M
ENCODING 77
SWIDTH 510 0
DWIDTH 39 0
BBX 28 76 3 0
BITMAP
00001C00
00003F80
0000FFE0
0003FFF0
0007FFE0
000FFF80
000FF000
000FF000
000FF000
000FF000
000FF000
000FF000
000FF000
000FF000
000FF000
000FF000
000FF000
000FF000
000FF000
000FF000
000FF000
800FF000
C00FF000
E00FF000
700FE000
7C0FE000
7E0FE000
3F0FE000
3F8FE000
3F8FE000
1F8FE000
1F8FE000
1F0FE000
1F0FE000
0F0FE000
0F0FE000
0F0FE000
070FE000
070FE000
060FE000
0207E000
0207E000
0207E000
0007E000
0007E000
0007E000
0007C000
0007C000
0007C000
0007C000
0007C000
0007C000
0007C000
0007C000
0007C000
0007C000
0007C000
0007C000
0007C000
0007C000
0007C000
0007C000
0007C000
0007C000
0007C000
0007C000
0007C000
0007C000
0007C000
0007C000
0007FF00
0003FFE0
0001FFF0
00007FF0
00003F80
00001C00
ENDCHAR
STARTCHAR N
ENCODING 78
SWIDTH 510 0
DWIDTH 39 0
BBX 29 76 5 0
BITMAP
00000C00
00003F80
0000FFF0
0001FFF8
0007FFF0
000FFF80
000FF000
000FF000
000FF000
000FF000
000FF000
000FF000
000FF000
000FF000
000FF000
000FF000
000FF000
000FF000
000FF000
000FF000
000FF000
800FF000
C00FF000
E00FF000
780FF000
7C0FF000
7E0FF000
3F07F000
3F87E000
3F87E000
1F87E000
1F87E000
1F87E000
0F87E000
0F07E000
0F07E000
0707E000
0707E000
0707E000
0307E000
0307E000
0207E000
0207E000
0007E000
0007E000
0007E000
0007E000
0007E000
0007E000
0007E000
0007E000
0007E000
0007C000
0007C000
0007C000
0007C000
0007C000
0007C000
0007C000
0007C000
0007C000
0007C000
0007C000
0007C000
0007C000
0007C000
0007C000
0007C000
0007C000
0007C000
0007C000
0007C000
0007C000
00078000
00070000
00040000
ENDCHAR
STARTCHAR O
ENCODING 79
SWIDTH 510 0
DWIDTH 39 0
BBX 33 75 3 0
BITMAP
0020300000
01E0380000
01E03C0000
01E03C0000
01E03C0000
01E03C0000
01E03C0000
01E03C0000
01E03C0000
01E03C0000
01E03C0000
01E03C0000
03E03E0000
03E03E0000
83E03E0000
E3E07E0000
FBE07E0000
7FE07E0000
7FE07E0000
7FE07E0000
7FE07E0000
7FE07E0000
3FE07E0000
3FE07E0000
3FE07E0000
3FE07E0000
3FE07E0000
1FE07E0000
1FE07E0000
1FE07E0000
1FE07E0000
1FE07E0000
0FE07E0000
0FE07E0000
0FE07E0000
0FE07E0000
0FE07E0000
07E07E0000
07E07E0000
07E07E0000
07E07E0000
07E07E0000
07F07F0000
03FE7F0000
03FFFF0000
03FFFF0000
03FFFF0000
03FFFF0000
01E07F0000
01E07F0000
01E07F0000
01E07F0000
00E07F0000
00E07F0000
00407F0000
00407F0000
0000FF0000
0000FF0000
0000FF0000
0000FF0000
0000FF0000
0000FF0000
0000FF0000
0000FF0000
0000FF0000
0000FF0000
0000FF0000
0000FF0000
0000FF0000
0000FFF800
00007FFF00
00001FFF80
00000FFE00
000003F800
000000C000
ENDCHAR
STARTCHAR P
ENCODING 80
SWIDTH 510 0
DWIDTH 39 0
BBX 31 75 4 0
BITMAP
00008000
0000C000
0000F000
0000F000
0040F000
0040F000
00C0F000
00C0F000
01C0F000
01C0F000
03C1F000
03C1F000
03C1F000
03C1F000
03C1F800
03C1F800
07C1F800
07C1F800
07C1F800
07C1F800
07C1F800
0FC1F800
0FC1F800
0FC1F800
0FC1F800
0FC1F800
1FC1F800
1FC1F800
1FC1F800
1FC1F800
1FC1F800
3FC1F800
3FC1F800
3FC1F800
3FC1F800
3FC1F800
3FC1F800
7FC1F800
7FC1F800
7FC1F800
7FC1FC00
7FC1FC00
FFC1FC00
FBC1FC00
E3C1FC00
83C1FC00
03C1FC00
03C1FC00
03C1FC00
03C1FC00
03C1FC00
03C1FC00
03C1FC00
03C1FC00
01C1FC00
01C1FC00
01C1FC00
01C1FC00
01C1FC00
0041FC00
0001FC00
0001FC00
0001FC00
0001FC00
0001FE00
0003FE00
0003FE00
0003FE00
0003FE00
0003FFC0
0001FFFC
00007FFE
00003FFC
00000FE0
00000380
ENDCHAR
STARTCHAR Q
ENCODING 81
SWIDTH 510 0
DWIDTH 39 0
BBX 26 76 6 0
BITMAP
00007000
0000FE00
0003FF80
000FFFC0
001FFFC0
003FFE00
003FC000
003FC000
003FC000
003FC000
003FC000
003FC000
003FC000
003FC000
003FC000
003FC000
803FC000
C03FC000
F03FC000
783FC000
7C3FC000
7F3FC000
7FBF8000
3FFF8000
1FFF8000
0FFF8000
07FF8000
03FF8000
03FF8000
01FF8000
00FF8000
007F8000
003F8000
003F8000
003F8000
003F8000
003F8000
003F8000
003F8000
003F8000
003F8000
003F8000
003F8000
003F8300
003F8700
003F8F00
001F9E00
001FFE00
001FFE00
001FFC00
001FFC00
001FFC00
001FF800
001FF800
001FF800
001FF800
001FF000
001FF000
001FF000
001FE000
001FE000
001FE000
001FC000
001FC000
001FC000
001FC000
001F8000
001F8000
001F8000
001F0000
001F0000
001F0000
001F0000
001E0000
001C0000
00100000
ENDCHAR
STARTCHAR R
ENCODING 82
SWIDTH 510 0
DWIDTH 39 0
BBX 24 76 7 0
BITMAP
0001C0
0003F0
000FFE
001FFF
007FFE
00FFFC
00FF00
00FF00
00FF00
00FF00
00FF00
00FF00
00FF00
00FF00
00FF00
00FF00
00FF00
00FF00
00FF00
00FF00
00FF00
00FF00
00FF00
00FFC0
00FFF8
00FFFE
00FFFF
00FFFF
00FFFE
00FE00
00FE00
00FE00
00FE00
00FE00
00FE00
00FE00
00FE00
00FE00
00FE00
00FE00
00FE00
00FF00
80FFE0
C0FFFC
60FFFF
78FFFF
7CFFFF
3EFFF8
3FFC00
3FFC00
3FFC00
1FFC00
1FFC00
1FFE00
0FFFC0
0FFFF0
0FFFFE
0FFFFF
07FFFF
07FFFE
07FC00
03FC00
03FC00
03FC00
01FC00
01FC00
01FC00
01FC00
00F800
00F800
00F800
00F800
007800
007000
006000
004000
ENDCHAR
STARTCHAR S
ENCODING 83
SWIDTH 510 0
DWIDTH 39 0
BBX 27 75 7 0
BITMAP
00030000
00070000
001F0020
007F00C0
00FF01C0
00FF07C0
00FF0FC0
00FF1F80
00FF7F80
00FFFF00
00FFFF00
00FFFE00
00FFFC00
00FFF800
00FFF000
00FFE000
03FFC000
0FFFC000
7FFF8000
FFFF0000
FFFF0000
3FFF0000
0FFE0000
01FE0000
00FE0000
00FE0000
00FE0000
00FE0000
00FE0000
00FE0000
00FE0000
00FE0000
00FE0000
00FE0000
00FE0000
00FE0000
00FE0000
00FE0000
00FE0000
00FE0000
00FE0000
00FE0000
00FC0000
00FC0000
00FC0000
00FC0000
00FC0000
00FC0000
00FC0000
00FC0000
00FC0000
00FC0000
00FC0000
00FC0000
00FC0000
00FC0000
007C0000
007C0000
007C0000
007C0000
007C0000
007C0000
007C0000
007C0000
007C0000
007C0000
00780000
00780000
00780000
00780000
00780000
00780000
00780000
00700000
00400000
ENDCHAR
STARTCHAR T
ENCODING 84
SWIDTH 510 0
DWIDTH 39 0
BBX 27 76 6 0
BITMAP
00010000
00030000
00070000
000F0000
001F0000
001F0000
001F0000
001F0000
001F0000
001F0000
001F0000
001F0000
001F0000
001F0000
001F0000
001F0000
001F0000
001F0000
001F0000
001F0000
001F0000
001F0000
001F0000
001F0000
001F0000
001F0000
001F0000
001F0000
003F0000
003F0000
003F0000
003F0000
003F0000
003F0000
003F0000
003F0000
003F0000
003F0000
007F0000
007F0000
007E0000
00FE0000
00FE0000
00FC0000
01FC0000
01FC0000
01F80000
03F80000
03F80000
03F80000
07F00000
07F00000
07F00000
0FE00000
0FE00000
0FE00000
1FC00000
1FC00000
1FC00000
3FC00000
3F800000
3F800000
7F800000
7F000000
7F000040
FF0001C0
FF0001C0
FF0003C0
7FE003E0
3FFF83E0
1FFFFFE0
0FFFFFE0
07FFFFE0
03FFFFE0
01FFC000
00800000
ENDCHAR
STARTCHAR U
ENCODING 85
SWIDTH 510 0
DWIDTH 39 0
BBX 33 76 3 0
BITMAP
0000400000
0000F80000
0003FF0000
000FFFC000
001FFF8000
007FFF0000
00FFE00000
07FF800000
1FFF800000
FFFF800000
FFFF800000
7FFF800000
1FFF800000
007F800000
007F800000
007F800000
007F800000
007F800000
007F800000
003F800000
003F800000
003F800000
003F800000
003F800000
003F800000
003F800000
003F800000
003F800000
003F800000
003F800000
003F800000
003F000000
003F000000
003F000000
003F000000
003F000000
003F000000
003F000000
003F000000
003F000000
003F000000
003FC00000
003FF80000
003FFF0000
003FFFC000
003FFFE000
003FFFC000
003FFF8000
003F000000
003F000000
003F000000
003F000000
003F000000
003F000000
003E000000
003E000000
003E000000
003E000000
003E000000
003E000000
003E000000
003E000000
003E000000
003E000000
003E000000
003E000100
003E000700
003E000780
003E000780
003FE00F80
003FFFCF80
001FFFFF80
001FFFFF80
000FFFFF80
0007FFFE00
0003F80000
ENDCHAR
STARTCHAR V
ENCODING 86
SWIDTH 510 0
DWIDTH 39 0
BBX 31 76 4 0
BITMAP
00000800
00001800
00007800
0001F800
0003F800
0007F800
0007F800
0007F800
0007F800
0007F800
0007F800
0007F800
0007F800
0007F800
0007F800
0007FF00
0007FFF8
0007FFFC
0007FFFE
0007FFF8
0007FFC0
0007FF00
0007F800
0007F000
0007F000
0007F000
0007F000
0007FFF0
0007FFFC
0007FFFE
0007FFFC
0007FFF0
0007FF80
0007FC00
0007F000
0007F000
0007F000
0007F000
0007F000
0007F000
0007F000
0007F000
0007F000
0007F000
0007E000
0007E000
0007E000
0003E000
0003E000
0003E000
0003E000
0003E000
0003E000
0003F800
0003FE00
0007FFC0
000FFFE0
001FFFF0
003FFFF0
007FFF00
00FFF800
01FFE000
03FFE000
07FFE000
0FFFE000
1FFBE000
3FF3E000
3FC3C000
7F03C000
7E03C000
7803C000
F003C000
C003C000
00038000
00030000
00020000
ENDCHAR
STARTCHAR W
ENCODING 87
SWIDTH 510 0
DWIDTH 39 0
BBX 29 76 5 0
BITMAP
00100000
000C0000
000E0000
000F0000
001F0000
001F0000
001F0000
001F0000
001F0000
001F0000
001F0000
001F0000
001F0000
001F0000
001F0000
001F8000
001F8000
001F8000
001F8000
001F8000
001F8000
001F8000
001F8000
001F8000
001F8000
001F8000
001F8000
001F8000
001F8000
001F8000
001F8000
001FC000
000FC000
000FE000
0007E000
0007F000
0007F000
0003F000
0003F800
0001F800
0001FC00
0000FC00
0000FC00
0000FE00
00007E00
00007F00
00003F00
00003F00
00003F80
00001F80
00001FC0
00000FC0
00000FE0
000007E0
000007E0
000007F0
000007F0
000007F0
000007F0
000007F0
000007F0
000007F0
000007F0
00000FF0
00000FF0
60000FF0
70000FF8
78000FF8
78000FF8
7803FFF0
FDFFFFC0
FFFFFF80
FFFFFF00
FFFFFE00
1FFFF800
000FF000
ENDCHAR
STARTCHAR X
ENCODING 88
SWIDTH 510 0
DWIDTH 39 0
BBX 31 76 4 0
BITMAP
00000100
000007E0
00001FF8
00003FFE
0000FFFE
0001FFF8
0001FF00
0001FE00
0001FE00
0001FE00
0001FE00
0001FE00
0001FE00
0001FE00
0001FE00
0001FE00
0001FE00
0000FE00
0000FE00
0000FE00
0000FE00
0000FE00
0000FE00
0000FE00
0000FE00
0000FE00
0000FE00
0000FE00
0000FE00
0000FE00
0000FE00
0000FE00
0000FE00
0000FE00
0000FE00
0000FE00
0000FE00
0000FE00
0000FE00
00007E00
00007E00
00007E00
00007E00
00007E00
00007E00
00007E00
00007E00
00007E00
00007E00
00007E00
00007E00
00007E00
00007E00
00007E00
00007E00
00007E00
00007E00
00007E00
00007E00
00007E00
00007E00
00007E00
00007E00
00007E00
00007C00
C0007C00
F0003C00
F0003C00
F0007C00
F81FFC00
FFFFFC00
FFFFFC00
FFFFF800
FFFFF000
07FFE000
0003C000
ENDCHAR
STARTCHAR Y
ENCODING 89
SWIDTH 510 0
DWIDTH 39 0
BBX 16 76 11 0
BITMAP
0080
01E0
07FC
0FFF
3FFF
FFFE
FFC0
FF00
FF00
FE00
FE00
FE00
FE00
FE00
FE00
FE00
FE00
FE00
FE00
FE00
FE00
FE00
FE00
FE00
FE00
FE00
7E00
7E00
7E00
7E00
7E00
7C00
7C00
7C00
7C00
7C00
7C00
7C00
7C00
7C00
7C00
7F00
7FE0
7FF8
7FFF
7FFF
7FFE
7FF8
7C00
7C00
7C00
7C00
7C00
7C00
7C00
7C00
7C00
7C00
7C00
7C00
7C00
7C00
7C00
7800
7800
7800
7800
7800
7800
7800
7800
7800
7800
7800
3800
1800
ENDCHAR
STARTCHAR Z
ENCODING 90
SWIDTH 510 0
DWIDTH 39 0
BBX 27 76 6 0
BITMAP
01000000
0FC00000
7FF00000
FFF80000
7FFE0000
1FFF0000
007F0000
007F0000
007F0000
007F0000
007F0000
007F0000
007F0000
007F0000
007F0000
007F0000
007F0000
007F0000
007F0000
007F0000
007F0000
007F0000
003F0000
003F0000
003F0000
003F0000
003F0000
003F0000
003F0000
003F0000
003F0000
003F0000
003F0000
003F0000
003F0000
003F0000
003F0000
003F0000
003F0000
003F0000
003E0000
003E0000
003E0000
003E0000
003E0000
003E0000
003E0000
003E0000
003E0000
003E0000
003E0000
003E0000
003E0000
01FE0020
0FFE00E0
7FFE01C0
FFFE03C0
FFFE07C0
3FFE0FC0
003E1F80
001E3F80
001E1F80
001E1F80
001E1F00
001E1F00
001E1F00
001E1E00
001E0E00
001E0E00
001E0E00
001E0C00
001E0C00
001E0400
001E0400
001C0000
00100000
ENDCHAR
STARTCHAR underscore
ENCODING 95
SWIDTH 510 0
DWIDTH 39 0
BBX 29 13 5 0
BITMAP
00000010
00000030
000000F0
000000F0
000000F0
001FFFF0
07FFFFF0
0FFFFFF8
1FFFFFF8
1FFFFFF8
3FFFFFF0
7FF00000
80000000
ENDCHAR
STARTCHAR a
ENCODING 97
SWIDTH 510 0
DWIDTH 39 0
BBX 23 75 8 0
BITMAP
004000
004080
00C0C0
00C0E0
01C0F0
01C0F0
03C0F0
03C0F0
03C0F0
03C0F0
03C0F0
07C0F0
07C0F8
07C0F8
07C0F8
07C0F8
0FC0F8
0FC0F8
0FC0F8
0FC0F8
0FC0F8
0FC0F8
1FC0F8
1FC0F8
1FC0F8
1FC0F8
1FC0F8
3FC1F8
3FC1F8
3FC1F8
3FC1F8
3FC1F8
7FC1F8
7FC1F8
7FC1F8
7FC1FC
7FC1FC
FFC1FC
FFC1FC
F3C1FC
C3C1FC
03C1FC
03C1FC
03C1FC
03C1FC
03C1FC
03C1FC
03C1FC
03C1FC
03C1FC
01C1FC
01C1FC
01C1FC
01C1FC
00C1FC
0001FC
0001FC
0001FC
0001FE
0001FE
0001FE
0001FE
0001FE
0001FE
0001FE
0001FE
0001FE
0001FE
0001FE
0001FE
0001FE
00007E
00003E
00000E
000006
ENDCHAR
STARTCHAR b
ENCODING 98
SWIDTH 510 0
DWIDTH 39 0
BBX 24 76 7 0
BITMAP
000180
0003F0
000FFC
003FFF
007FFE
00FFFC
00FF00
00FF00
00FF00
00FF00
00FF00
00FE00
00FE00
00FE00
00FE00
00FE00
00FE00
00FE00
00FE00
00FE00
00FE00
00FE00
00FE00
00FFC0
00FFF0
00FFFE
00FFFF
00FFFF
00FFFE
00FE00
00FE00
00FE00
00FE00
00FE00
00FC00
00FC00
00FC00
00FC00
00FC00
00FC00
00FC00
00FC00
00FC00
80FC00
40FC00
70FC00
78FC00
7CFC00
3FFC00
3FFC00
3FFC00
3FFC00
1FFC00
1FFC00
1FFC00
1FFC00
0FFC00
0FF800
0FF800
0FF800
07F800
07F800
07F800
07F800
03F800
03F800
03F800
03F800
01F800
01F800
01F800
01F800
00F800
00F000
00E000
00C000
ENDCHAR
STARTCHAR c
ENCODING 99
SWIDTH 510 0
DWIDTH 39 0
BBX 23 76 8 0
BITMAP
018000
03E000
0FFC00
3FFF00
7FFE00
FFFC00
FF0000
FF0000
FF0000
FF0000
FF0000
FE0000
FE0000
FE0000
FE0000
FE0000
FE0000
FE0000
FE0000
FE0000
FE0000
FE0000
FE0000
FE0000
FE0000
FE0000
FE0000
FE0000
FE0000
FE0000
FE0000
FE0000
FE0000
FE0000
FC0000
FC0000
FC0000
FC0000
FC0000
FC0000
FC0000
FC0000
FC0000
FC0000
FC0000
FC0000
FC0000
FC0000
FC0000
FC0000
FC0000
FC0000
FC0000
FC0000
FC0000
FC0000
FC0000
FC0000
FC0000
FC0000
FC0000
F80000
F80000
F80000
F80000
F80004
F8001E
F8001E
FC001E
FFE03E
7FFFFE
7FFFFE
3FFFFE
1FFFFE
0FFFC0
0F8000
ENDCHAR
STARTCHAR d
ENCODING 100
SWIDTH 510 0
DWIDTH 39 0
BBX 28 76 5 -1
BITMAP
00000C00
00003F00
0000FFE0
1801FFF0
1C07FFE0
1E0FFFC0
1E0FF000
1E0FF000
3E0FF000
3E0FF000
3E0FF000
3E0FF000
3E0FF000
3E0FF000
3E0FF000
3E0FF000
3E0FF000
3E0FF000
3E0FF000
3E0FF000
3E0FF000
3E0FF000
3E0FF000
3E0FF000
3E0FF000
3E0FE000
3E0FE000
3E07E000
3E07E000
3E07E000
3E07E000
3E07E000
3E07E000
3F07E000
7F07E000
7F07E000
7F07E000
7F07E000
7F07E000
7F07E000
7F07E000
7F07E000
7F07E000
7F07E000
7F07E000
7F07E000
7F07E000
7F07E000
7F07C000
7F07C000
7F07C000
7F07C000
7F07C000
7F07C000
7F07C000
7F07C000
7F07C000
7F07C000
7F07C000
7F07C000
7F07C000
FF07C000
FF07C000
FF07C000
FF07C0C0
FF07C1C0
FF07C3C0
FF07C3E0
FFFFC3E0
FFFFF7E0
FFFFFFE0
7FFFFFC0
3FFFFFC0
1FFFFE00
0FFF0000
07800000
ENDCHAR
STARTCHAR e
ENCODING 101
SWIDTH 510 0
DWIDTH 39 0
BBX 26 76 6 0
BITMAP
00007000
0001FE00
0003FF80
000FFFC0
001FFF80
003FFE00
00FFC000
07FFC000
3FFFC000
FFFFC000
7FFFC000
3FFFC000
07FFC000
003FC000
003FC000
003FC000
003FC000
003F8000
003F8000
003F8000
003F8000
003F8000
003F8000
003F8000
003F8000
003F8000
003F8000
003F8000
003F8000
003F8000
003F8000
003F8000
003F8000
003F8000
003F8000
003F8000
003F8000
003F8000
003F8000
003F8000
003F0000
003F0000
003F0000
003F0000
003F0000
003F0000
003F0000
003F0000
003F0000
003F0000
003F0000
003F0000
003F0000
003F0000
003F0000
003F0000
003F0000
003F0000
003F0000
003F0000
003F0000
003F0000
003F0000
003F0000
001E0000
001E0000
001E0000
001E0000
001E0000
001E0000
001E0000
001E0000
001E0000
001E0000
00180000
00100000
ENDCHAR
STARTCHAR f
ENCODING 102
SWIDTH 510 0
DWIDTH 39 0
BBX 33 76 3 0
BITMAP
001F000000
003FFC0000
007FFFF000
00FFFFFF80
01FFFFFF80
03FFFFFF80
03FFFFFF80
03FFFC0F80
03FF000F80
03FC000F80
03FC000780
03FC000380
03FC000180
03FC000000
03FC000000
03FC000000
03FC000000
03FC000000
83FC000000
C3FC000000
F3FC000000
FBFC000000
FFFC000000
7FFC000000
7FFC000000
7FFC000000
7FFC000000
3FFC000000
3FFC000000
3FFC000000
3FFC000000
1FF8000000
1FF8000000
1FF8000000
1FF8000000
0FF8000000
0FF8000000
0FF8000000
0FF8000000
07F8000000
07F8000000
07F8000000
07F8000000
03F8000000
03F8000000
03F8000000
03F8000000
01F8000000
01F8000000
01F8000000
01F8000000
01F8000000
01F8000000
01F8000000
01F8000000
01F8000000
01F8000000
01F8000000
01F8000000
01F8000000
01F8000000
01F8000000
01F8000000
00F8000000
00F8000000
00F8000000
00F0000000
00F0000000
00F0000000
00F0000000
00F0000000
00F0000000
00F0000000
00E0000000
00C0000000
0080000000
ENDCHAR
STARTCHAR g
ENCODING 103
SWIDTH 510 0
DWIDTH 39 0
BBX 29 75 5 1
BITMAP
00060000
00070000
00078000
0007C000
0007C000
0007C000
0007C000
0007C000
0007C000
0007C000
0007C000
0007C000
0007C000
0007C000
0007C000
0007C000
0007C000
0007C000
0007C000
0007C000
0007C000
0007C000
0007C000
0007C000
0007C000
0007C000
0007C000
0007C000
0007C000
0007C000
0007C000
0007C000
0007C000
0007C000
0007E000
0007E000
0007E000
0007E000
8007E000
C007F000
E003F000
7003F000
7C03F800
7E03F800
3F01F800
3F81FC00
3F81FC00
1F80FC00
1F80FE00
1F80FE00
0F007E00
0F007F00
0F007F00
07007F00
07003F80
07003F80
03003F80
02001FC0
02001FC0
02001FC0
00001FE0
00000FE0
00000FE0
00000FF0
100007F0
180007F0
1C0007F8
3C0007F8
3E007FF0
3E1FFFE0
3FFFFFC0
3FFFFF80
3FFFFF00
1FFFFE00
001FFC00
ENDCHAR
STARTCHAR h
ENCODING 104
SWIDTH 510 0
DWIDTH 39 0
BBX 27 76 6 0
BITMAP
01C00000
07F80000
0FFE0000
3FFF0000
7FFE0000
FFF80000
FF000000
FF000000
FF000000
FF000000
FF000000
FF000000
FF000000
FF000000
FF000000
FF000000
FF000000
FF000000
FE000000
FE000000
FE000000
FE400000
FE300400
FE380300
FE3C0380
FE1E0380
FE1F8380
FE1FC380
FE0FE380
FE0FE780
FE0FC780
FE07C780
FE07C780
FE07C780
FE07C780
FE03C780
FE03C7C0
FE0387C0
FE0187C0
FE0187C0
FE0187C0
FE0087C0
FC0087C0
FC0007C0
FC0007C0
FC0007C0
FC0007C0
FC0007C0
FC0007C0
FC0007C0
FC0007C0
FC0007C0
FC0007C0
FC0007C0
FC0007C0
FC0007C0
FC0007C0
FC0007C0
FC0007C0
7C0007C0
7C0007C0
7C0007E0
7C0007E0
7C0007E0
7C0007E0
7C0007E0
780007E0
780007E0
780007E0
780007E0
780007E0
780003E0
780000E0
78000060
60000020
40000000
ENDCHAR
STARTCHAR i
ENCODING 105
SWIDTH 510 0
DWIDTH 39 0
BBX 27 75 6 0
BITMAP
00003000
00007000
0001F000
0007F000
000FF000
000FF000
000FF000
000FF000
000FF000
000FF000
000FF000
000FF000
000FF000
000FF000
000FF000
000FF000
000FF000
000FF000
000FF000
000FF000
000FF000
000FF000
000FF000
000FE000
000FE000
000FE000
000FE000
000FE000
000FE000
000FE000
000FE000
000FE000
000FE000
000FE000
000FE000
000FE000
000FE000
000FE000
000FE000
000FE000
000FE000
000FE000
000FE000
0007E000
0007E000
0007E000
0007C000
0007C000
0007C000
0007C000
0007C000
0007C000
0007F000
0007FE00
000FFFC0
001FFFE0
001FFFE0
003FFF80
007FFC00
00FFF000
01FFC000
03FFC000
07FFC000
07FFC000
0FFFC000
1FF7C000
3FC7C000
7F87C000
7F07C000
7C078000
F8078000
E0078000
C0078000
00070000
00040000
ENDCHAR
STARTCHAR j
ENCODING 106
SWIDTH 510 0
DWIDTH 39 0
BBX 17 76 11 0
BITMAP
01C000
03F800
0FFE00
1FFF80
7FFF00
FFF800
FF0000
FF0000
FF0000
FF0000
FF0000
FF0000
FF0000
FF0000
FF0000
FF0000
FF0000
FF0000
FF0000
FF0000
FF0000
FF0000
FF0000
FF0000
FF0000
FF0000
FE0000
FE0000
FE0000
FE0000
FE0000
FE0000
FE0000
FE0000
FE0000
FE0000
7E0000
7E0000
7E0000
7E0000
7E0000
7E0000
7E0000
7E0000
7E0000
7E0000
7E0000
7E0000
7E0000
7C0000
7C0000
7C0000
7C0000
7C0000
7C0000
7C0000
7C0000
7C0000
7C0000
7C0000
7C0000
7C0000
7C0000
7C0000
7C0000
7C0000
7C0000
7C0000
7C0000
7C0000
7C0000
7C0000
7C0000
780000
700000
400000
ENDCHAR
STARTCHAR k
ENCODING 107
SWIDTH 510 0
DWIDTH 39 0
BBX 27 76 6 0
BITMAP
00003000
0000FE00
0003FFC0
0007FFE0
001FFFC0
003FFF00
003FE000
003FC000
003FC000
003FC000
003FC000
003FC000
003FC000
003FC000
003FC000
003FC000
803FC000
C03FC000
703FC000
783FC000
7E3FC000
3F3FC000
3FBFC000
3FFFC000
1FFFC000
0FFFC000
07FFC000
03FFC000
01FFC000
01FFC000
00FFC000
007FC000
003F8000
001F8000
001F8000
001F8000
001F8000
001F8000
001F8000
001F8000
001F8000
007F8000
01FF8080
0FFF8180
7FFF8300
FFFF8700
7FFF9F00
3FFFBE00
001FFE00
001FFE00
001FFE00
001FFC00
001FFC00
001FFC00
00FFF800
07FFF800
1FFFF800
FFFFF000
FFFFF000
7FFFF000
07FFF000
001FE000
001FE000
001FE000
001FC000
001FC000
001FC000
001F8000
001F8000
001F8000
001F8000
001F0000
001F0000
001E0000
001C0000
00180000
ENDCHAR
STARTCHAR l
ENCODING 108
SWIDTH 510 0
DWIDTH 39 0
BBX 31 76 4 0
BITMAP
00008000
00018000
00038000
00078006
0007800C
000F803C
000F80FC
000F81F8
000F87F8
000F9FF8
000FBFF0
000FFFE0
000FFFC0
000FFF80
000FFF00
003FFE00
01FFFC00
0FFFF800
1FFFF000
1FFFE000
0FFFC000
01FF8000
007F8000
001F8000
000F8000
001F8000
001F8000
001F8000
001F8000
001F8000
001F8000
001F8000
001F8000
001F8000
001F8000
001F8000
001F8000
001F8000
001F8000
001F8000
001F8000
001FC000
007FC000
03FFC000
0FFFC000
7FFFC000
FFFFC000
7FFFC000
3FFFC000
003FC000
003FC000
003FC000
003FC000
003FC000
00FFC000
07FFC000
3FFFC000
FFFFC000
FFFFC000
7FFFC000
07FFC000
003FC000
003FC000
003FC000
003FC000
003FC000
003FC000
003FC000
003FC000
003FC000
003FC000
003F8000
003F0000
003C0000
00380000
00200000
ENDCHAR
STARTCHAR m
ENCODING 109
SWIDTH 510 0
DWIDTH 39 0
BBX 29 76 5 0
BITMAP
00000C00
00003F80
0000FFF0
0001FFF0
0007FFF0
000FFF80
000FF000
000FF000
000FF000
000FF000
000FF000
000FF000
000FF000
000FF000
000FF000
000FF000
000FF000
000FF000
000FF000
000FF000
000FF000
800FF000
C00FF000
600FF000
780FF000
7C0FF000
7E0FF000
3F07F000
3F87E000
3F87E000
1F87E000
1F87E000
1F87E000
0F87E000
0F07E000
0F07E000
0707E000
0707E000
0707E000
0307E000
0307E000
0207E000
0007E000
0007E000
0007E000
0007E000
0007E000
0007E000
0007E000
0007E000
0007E000
0007C000
0007C000
0007C000
0007C000
0007C000
0007C000
0007C000
0007C000
0007C000
0007C000
0007C000
0007C000
0007C000
0007C000
0007C000
0007C000
0007C000
0007C000
0007C000
0007FF80
0003FFF0
0001FFF8
00007FF0
00003F80
00000C00
ENDCHAR
STARTCHAR n
ENCODING 110
SWIDTH 510 0
DWIDTH 39 0
BBX 29 76 5 0
BITMAP
00000C00
00003F80
0000FFF0
0001FFF8
0007FFF0
000FFF80
000FF000
000FF000
000FF000
000FF000
000FF000
000FF000
000FF000
000FF000
000FF000
000FF000
000FF000
000FF000
000FF000
000FF000
000FF000
800FF000
C00FF000
E00FF000
780FF000
7C0FF000
7E0FF000
3F07F000
3F87E000
3F87E000
1F87E000
1F87E000
1F87E000
0F87E000
0F07E000
0F07E000
0707E000
0707E000
0707E000
0307E000
0307E000
0207E000
0207E000
0007E000
0007E000
0007E000
0007E000
0007E000
0007E000
0007E000
0007E000
0007E000
0007C000
0007C000
0007C000
0007C000
0007C000
0007C000
0007C000
0007C000
0007C000
0007C000
0007C000
0007C000
0007C000
0007C000
0007C000
0007C000
0007C000
0007C000
0007C000
0007C000
0007C000
00078000
00070000
00040000
ENDCHAR
STARTCHAR o
ENCODING 111
SWIDTH 510 0
DWIDTH 39 0
BBX 33 75 3 0
BITMAP
0020300000
01E0380000
01E03C0000
01E03C0000
01E03C0000
01E03C0000
01E03C0000
01E03C0000
01E03C0000
01E03C0000
01E03C0000
01E03C0000
03E03E0000
03E03E0000
83E03E0000
E3E07E0000
FBE07E0000
7FE07E0000
7FE07E0000
7FE07E0000
7FE07E0000
7FE07E0000
3FE07E0000
3FE07E0000
3FE07E0000
3FE07E0000
3FE07E0000
1FE07E0000
1FE07E0000
1FE07E0000
1FE07E0000
1FE07E0000
0FE07E0000
0FE07E0000
0FE07E0000
0FE07E0000
0FE07E0000
07E07E0000
07E07E0000
07E07E0000
07E07E0000
07E07E0000
07F07F0000
03FE7F0000
03FFFF0000
03FFFF0000
03FFFF0000
03FFFF0000
01E07F0000
01E07F0000
01E07F0000
01E07F0000
00E07F0000
00E07F0000
00407F0000
00407F0000
0000FF0000
0000FF0000
0000FF0000
0000FF0000
0000FF0000
0000FF0000
0000FF0000
0000FF0000
0000FF0000
0000FF0000
0000FF0000
0000FF0000
0000FF0000
0000FFF800
00007FFF00
00001FFF80
00000FFE00
000003F800
000000C000
ENDCHAR
STARTCHAR p
ENCODING 112
SWIDTH 510 0
DWIDTH 39 0
BBX 31 75 4 0
BITMAP
00008000
0000C000
0000F000
0000F000
0040F000
0040F000
00C0F000
00C0F000
01C0F000
01C0F000
03C1F000
03C1F000
03C1F000
03C1F000
03C1F800
03C1F800
07C1F800
07C1F800
07C1F800
07C1F800
07C1F800
0FC1F800
0FC1F800
0FC1F800
0FC1F800
0FC1F800
1FC1F800
1FC1F800
1FC1F800
1FC1F800
1FC1F800
3FC1F800
3FC1F800
3FC1F800
3FC1F800
3FC1F800
3FC1F800
7FC1F800
7FC1F800
7FC1F800
7FC1FC00
7FC1FC00
FFC1FC00
FBC1FC00
E3C1FC00
83C1FC00
03C1FC00
03C1FC00
03C1FC00
03C1FC00
03C1FC00
03C1FC00
03C1FC00
03C1FC00
01C1FC00
01C1FC00
01C1FC00
01C1FC00
01C1FC00
0041FC00
0001FC00
0001FC00
0001FC00
0001FC00
0001FE00
0003FE00
0003FE00
0003FE00
0003FE00
0003FFC0
0001FFFC
00007FFE
00003FFC
00000FE0
00000380
ENDCHAR
STARTCHAR q
ENCODING 113
SWIDTH 510 0
DWIDTH 39 0
BBX 27 76 6 0
BITMAP
00007000
0000FE00
0003FF80
0007FFE0
001FFFC0
003FFE00
003FC000
003FC000
003FC000
003FC000
003FC000
003FC000
003FC000
003FC000
003FC000
003FC000
803FC000
C03FC000
F03FC000
783FC000
7E3FC000
7F3FC000
3FBFC000
3FFFC000
1FFFC000
0FFFC000
07FF8000
03FF8000
01FF8000
01FF8000
00FF8000
007F8000
003F8000
003F8000
003F8000
003F8000
003F8000
001F8000
001F8000
001F8000
001F8000
001F8000
001F8080
001F8300
001F8700
001F8F00
001F9E00
001FFE00
001FFE00
001FFE00
001FFC00
001FFC00
001FFC00
001FF800
001FF800
001FF800
001FF000
001FF000
001FF000
001FF000
001FE000
001FE000
001FE000
001FC000
001FC000
001FC000
001F8000
001F8000
001F8000
001F8000
001F0000
001F0000
001F0000
001E0000
001C0000
00100000
ENDCHAR
STARTCHAR r
ENCODING 114
SWIDTH 510 0
DWIDTH 39 0
BBX 24 76 7 0
BITMAP
0001C0
0003F0
000FFE
001FFF
007FFE
00FFFC
00FF00
00FF00
00FF00
00FF00
00FF00
00FF00
00FF00
00FF00
00FF00
00FF00
00FF00
00FF00
00FF00
00FF00
00FF00
00FF00
00FF00
00FFC0
00FFF8
00FFFE
00FFFF
00FFFF
00FFFE
00FE00
00FE00
00FE00
00FE00
00FE00
00FE00
00FE00
00FE00
00FE00
00FE00
00FE00
00FE00
00FF00
80FFE0
C0FFFC
60FFFF
78FFFF
7CFFFF
3EFFF8
3FFC00
3FFC00
3FFC00
1FFC00
1FFC00
1FFE00
0FFFC0
0FFFF0
0FFFFE
0FFFFF
07FFFF
07FFFE
07FC00
03FC00
03FC00
03FC00
01FC00
01FC00
01FC00
01FC00
00F800
00F800
00F800
00F800
007800
007000
006000
004000
ENDCHAR
STARTCHAR s
ENCODING 115
SWIDTH 509 0
DWIDTH 39 0
BBX 27 75 6 0
BITMAP
00030000
00070000
001F0020
003F00E0
00FF01C0
00FF03C0
00FF0FC0
00FF1FC0
00FF7F80
00FFFF80
00FFFF00
00FFFE00
00FFFC00
00FFF800
00FFF000
00FFF000
01FFE000
0FFFC000
7FFF8000
FFFF0000
7FFF0000
3FFF0000
07FF0000
00FF0000
00FF0000
00FF0000
00FE0000
00FE0000
00FE0000
00FE0000
00FE0000
00FE0000
00FE0000
00FE0000
00FE0000
00FE0000
00FE0000
00FE0000
00FE0000
007E0000
007E0000
007E0000
007E0000
007E0000
007E0000
007E0000
007E0000
007C0000
007C0000
007C0000
007C0000
007C0000
007C0000
007C0000
007C0000
007C0000
007C0000
007C0000
007C0000
007C0000
007C0000
007C0000
007C0000
007C0000
007C0000
007C0000
007C0000
007C0000
007C0000
007C0000
007C0000
007C0000
00780000
00700000
00600000
ENDCHAR
STARTCHAR t
ENCODING 116
SWIDTH 510 0
DWIDTH 39 0
BBX 27 76 6 0
BITMAP
00010000
00030000
00070000
000F0000
001F0000
001F0000
001F0000
001F0000
001F0000
001F0000
001F0000
001F0000
001F0000
001F0000
001F0000
001F0000
001F0000
001F0000
001F0000
001F0000
001F0000
001F0000
001F0000
001F0000
001F0000
001F0000
001F0000
001F0000
003F0000
003F0000
003F0000
003F0000
003F0000
003F0000
003F0000
003F0000
003F0000
003F0000
007F0000
007F0000
007E0000
00FE0000
00FE0000
00FC0000
01FC0000
01FC0000
01F80000
03F80000
03F80000
03F80000
07F00000
07F00000
07F00000
0FE00000
0FE00000
0FE00000
1FC00000
1FC00000
1FC00000
3FC00000
3F800000
3F800000
7F800000
7F000000
7F000040
FF0001C0
FF0001C0
FF0003C0
7FE003E0
3FFF83E0
1FFFFFE0
0FFFFFE0
07FFFFE0
03FFFFE0
01FFC000
00800000
ENDCHAR
STARTCHAR u
ENCODING 117
SWIDTH 510 0
DWIDTH 39 0
BBX 33 76 3 0
BITMAP
0000400000
0000F80000
0003FF0000
000FFFC000
001FFF8000
007FFF0000
00FFE00000
07FF800000
1FFF800000
FFFF800000
FFFF800000
7FFF800000
1FFF800000
007F800000
007F800000
007F800000
007F800000
007F800000
007F800000
003F800000
003F800000
003F800000
003F800000
003F800000
003F800000
003F800000
003F800000
003F800000
003F800000
003F800000
003F800000
003F000000
003F000000
003F000000
003F000000
003F000000
003F000000
003F000000
003F000000
003F000000
003F000000
003FC00000
003FF80000
003FFF0000
003FFFC000
003FFFE000
003FFFC000
003FFF8000
003F000000
003F000000
003F000000
003F000000
003F000000
003F000000
003E000000
003E000000
003E000000
003E000000
003E000000
003E000000
003E000000
003E000000
003E000000
003E000000
003E000000
003E000100
003E000700
003E000780
003E000780
003FE00F80
003FFFCF80
001FFFFF80
001FFFFF80
000FFFFF80
0007FFFE00
0003F80000
ENDCHAR
STARTCHAR v
ENCODING 118
SWIDTH 510 0
DWIDTH 39 0
BBX 31 76 4 0
BITMAP
00000800
00001800
00007800
0001F800
0003F800
0007F800
0007F800
0007F800
0007F800
0007F800
0007F800
0007F800
0007F800
0007F800
0007F800
0007FF00
0007FFF8
0007FFFC
0007FFFE
0007FFF8
0007FFC0
0007FF00
0007F800
0007F000
0007F000
0007F000
0007F000
0007FFF0
0007FFFC
0007FFFE
0007FFFC
0007FFF0
0007FF80
0007FC00
0007F000
0007F000
0007F000
0007F000
0007F000
0007F000
0007F000
0007F000
0007F000
0007F000
0007E000
0007E000
0007E000
0003E000
0003E000
0003E000
0003E000
0003E000
0003E000
0003F800
0003FE00
0007FFC0
000FFFE0
001FFFF0
003FFFF0
007FFF00
00FFF800
01FFE000
03FFE000
07FFE000
0FFFE000
1FFBE000
3FF3E000
3FC3C000
7F03C000
7E03C000
7803C000
F003C000
C003C000
00038000
00030000
00020000
ENDCHAR
STARTCHAR w
ENCODING 119
SWIDTH 510 0
DWIDTH 39 0
BBX 29 76 5 0
BITMAP
00100000
000C0000
000E0000
000F0000
001F0000
001F0000
001F0000
001F0000
001F0000
001F0000
001F0000
001F0000
001F0000
001F0000
001F0000
001F8000
001F8000
001F8000
001F8000
001F8000
001F8000
001F8000
001F8000
001F8000
001F8000
001F8000
001F8000
001F8000
001F8000
001F8000
001F8000
001FC000
000FC000
000FE000
0007E000
0007F000
0007F000
0003F000
0003F800
0001F800
0001FC00
0000FC00
0000FC00
0000FE00
00007E00
00007F00
00003F00
00003F00
00003F80
00001F80
00001FC0
00000FC0
00000FE0
000007E0
000007E0
000007F0
000007F0
000007F0
000007F0
000007F0
000007F0
000007F0
000007F0
00000FF0
00000FF0
60000FF0
70000FF8
78000FF8
78000FF8
7803FFF0
FDFFFFC0
FFFFFF80
FFFFFF00
FFFFFE00
1FFFF800
000FF000
ENDCHAR
STARTCHAR x
ENCODING 120
SWIDTH 510 0
DWIDTH 39 0
BBX 31 76 4 0
BITMAP
00000100
000007E0
00001FF8
00003FFE
0000FFFE
0001FFF8
0001FF00
0001FE00
0001FE00
0001FE00
0001FE00
0001FE00
0001FE00
0001FE00
0001FE00
0001FE00
0001FE00
0000FE00
0000FE00
0000FE00
0000FE00
0000FE00
0000FE00
0000FE00
0000FE00
0000FE00
0000FE00
0000FE00
0000FE00
0000FE00
0000FE00
0000FE00
0000FE00
0000FE00
0000FE00
0000FE00
0000FE00
0000FE00
0000FE00
00007E00
00007E00
00007E00
00007E00
00007E00
00007E00
00007E00
00007E00
00007E00
00007E00
00007E00
00007E00
00007E00
00007E00
00007E00
00007E00
00007E00
00007E00
00007E00
00007E00
00007E00
00007E00
00007E00
00007E00
00007E00
00007C00
C0007C00
F0003C00
F0003C00
F0007C00
F81FFC00
FFFFFC00
FFFFFC00
FFFFF800
FFFFF000
07FFE000
0003C000
ENDCHAR
STARTCHAR y
ENCODING 121
SWIDTH 510 0
DWIDTH 39 0
BBX 16 76 11 0
BITMAP
0080
01E0
07FC
0FFF
3FFF
FFFE
FFC0
FF00
FF00
FE00
FE00
FE00
FE00
FE00
FE00
FE00
FE00
FE00
FE00
FE00
FE00
FE00
FE00
FE00
FE00
FE00
7E00
7E00
7E00
7E00
7E00
7C00
7C00
7C00
7C00
7C00
7C00
7C00
7C00
7C00
7C00
7F00
7FE0
7FF8
7FFF
7FFF
7FFE
7FF8
7C00
7C00
7C00
7C00
7C00
7C00
7C00
7C00
7C00
7C00
7C00
7C00
7C00
7C00
7C00
7800
7800
7800
7800
7800
7800
7800
7800
7800
7800
7800
3800
1800
ENDCHAR
STARTCHAR z
ENCODING 122
SWIDTH 510 0
DWIDTH 39 0
BBX 27 76 6 0
BITMAP
01000000
0FC00000
7FF00000
FFF80000
7FFE0000
1FFF0000
007F0000
007F0000
007F0000
007F0000
007F0000
007F0000
007F0000
007F0000
007F0000
007F0000
007F0000
007F0000
007F0000
007F0000
007F0000
007F0000
003F0000
003F0000
003F0000
003F0000
003F0000
003F0000
003F0000
003F0000
003F0000
003F0000
003F0000
003F0000
003F0000
003F0000
003F0000
003F0000
003F0000
003F0000
003E0000
003E0000
003E0000
003E0000
003E0000
003E0000
003E0000
003E0000
003E0000
003E0000
003E0000
003E0000
003E0000
01FE0020
0FFE00E0
7FFE01C0
FFFE03C0
FFFE07C0
3FFE0FC0
003E1F80
001E3F80
001E1F80
001E1F80
001E1F00
001E1F00
001E1F00
001E1E00
001E0E00
001E0E00
001E0E00
001E0C00
001E0C00
001E0400
001E0400
001C0000
00100000
ENDCHAR
ENDFONT
